<svg xmlns="http://www.w3.org/2000/svg" xmlns:xlink="http://www.w3.org/1999/xlink" width="512" zoomAndPan="magnify" viewBox="0 0 384 383.999986" height="512" preserveAspectRatio="xMidYMid meet" version="1.2"><defs><clipPath id="7457538afd"><path d="M 384 75 L 384 309 C 384 350.421875 350.421875 384 309 384 L 75 384 C 33.578125 384 0 350.421875 0 309 L 0 75 C 0 33.578125 33.578125 0 75 0 L 309 0 C 350.421875 0 384 33.578125 384 75 Z M 384 75 "/></clipPath></defs><g id="02de23518b"><g clip-rule="nonzero" clip-path="url(#7457538afd)"><rect x="0" width="384" y="0" height="383.999986" style="fill:#ff7f00;fill-opacity:1;stroke:none;"/><path style="fill:none;stroke-width:40;stroke-linecap:butt;stroke-linejoin:miter;stroke:#ffffff;stroke-opacity:1;stroke-miterlimit:4;" d="M 512.000031 100.000008 L 512.000031 412.000033 C 512.000031 467.229204 467.229194 512.000041 412.000023 512.000041 L 99.999998 512.000041 C 44.770827 512.000041 -0.0000096 467.229204 -0.0000096 412.000033 L -0.0000096 100.000008 C -0.0000096 44.770837 44.770827 -0.000000000000028422 99.999998 -0.000000000000028422 L 412.000023 -0.000000000000028422 C 467.229194 -0.000000000000028422 512.000031 44.770837 512.000031 100.000008 Z M 512.000031 100.000008 " transform="matrix(0.75,0,0,0.75,0.0000072,0.000000000000021316)"/></g><g style="fill:#ffffff;fill-opacity:1;"><g transform="translate(46.453362, 320.927086)"><path style="stroke:none" d="M 271.953125 0 L 18.890625 0 L 18.890625 -253.0625 L 271.953125 -253.0625 L 271.953125 -193.390625 L 78.5625 -193.390625 L 78.5625 -59.671875 L 212.28125 -59.671875 L 212.28125 -96.703125 L 163.921875 -96.703125 L 163.921875 -156.375 L 271.953125 -156.375 Z M 271.953125 0 "/></g></g></g></svg>