<svg xmlns="http://www.w3.org/2000/svg" xmlns:xlink="http://www.w3.org/1999/xlink" width="500" zoomAndPan="magnify" viewBox="0 0 375 225" height="300" preserveAspectRatio="xMidYMid meet" version="1.2"><defs><clipPath id="4fc62f7f0b"><path d="M 2.414062 4.078125 L 372.011719 4.078125 L 372.011719 142.675781 L 2.414062 142.675781 Z M 2.414062 4.078125 "/></clipPath><clipPath id="11d4c52282"><path d="M 15.613281 4.078125 L 358.808594 4.078125 C 362.308594 4.078125 365.664062 5.46875 368.140625 7.945312 C 370.613281 10.417969 372.003906 13.777344 372.003906 17.277344 L 372.003906 129.480469 C 372.003906 132.980469 370.613281 136.335938 368.140625 138.808594 C 365.664062 141.285156 362.308594 142.675781 358.808594 142.675781 L 15.613281 142.675781 C 12.113281 142.675781 8.753906 141.285156 6.28125 138.808594 C 3.804688 136.335938 2.414062 132.980469 2.414062 129.480469 L 2.414062 17.277344 C 2.414062 13.777344 3.804688 10.417969 6.28125 7.945312 C 8.753906 5.46875 12.113281 4.078125 15.613281 4.078125 Z M 15.613281 4.078125 "/></clipPath><clipPath id="3e297f0e1e"><path d="M 256.265625 4.078125 L 372.589844 4.078125 L 372.589844 143 L 256.265625 143 Z M 256.265625 4.078125 "/></clipPath><clipPath id="36c961647d"><path d="M 269.480469 4.078125 L 359.375 4.078125 C 362.878906 4.078125 366.242188 5.472656 368.71875 7.953125 C 371.199219 10.429688 372.589844 13.792969 372.589844 17.296875 L 372.589844 129.679688 C 372.589844 133.1875 371.199219 136.546875 368.71875 139.027344 C 366.242188 141.503906 362.878906 142.898438 359.375 142.898438 L 269.480469 142.898438 C 265.976562 142.898438 262.613281 141.503906 260.136719 139.027344 C 257.65625 136.546875 256.265625 133.1875 256.265625 129.679688 L 256.265625 17.296875 C 256.265625 13.792969 257.65625 10.429688 260.136719 7.953125 C 262.613281 5.472656 265.976562 4.078125 269.480469 4.078125 Z M 269.480469 4.078125 "/></clipPath><clipPath id="1c73bf7e3f"><path d="M 187.5 9.09375 L 329.542969 9.09375 L 329.542969 137.167969 L 187.5 137.167969 Z M 187.5 9.09375 "/></clipPath></defs><g id="bbfe7d753d"><g clip-rule="nonzero" clip-path="url(#4fc62f7f0b)"><g clip-rule="nonzero" clip-path="url(#11d4c52282)"><path style="fill:none;stroke-width:9.935058;stroke-linecap:butt;stroke-linejoin:miter;stroke:#1f365c;stroke-opacity:1;stroke-miterlimit:4;" d="M 10.94306 -0.00159771 L 295.517104 -0.00159771 C 298.419268 -0.00159771 301.201588 1.151494 303.255129 3.205035 C 305.30543 5.255336 306.458522 8.040895 306.458522 10.94306 L 306.458522 103.980743 C 306.458522 106.882908 305.30543 109.665228 303.255129 111.715529 C 301.201588 113.76907 298.419268 114.922162 295.517104 114.922162 L 10.94306 114.922162 C 8.040896 114.922162 5.255337 113.76907 3.205035 111.715529 C 1.151495 109.665228 -0.00159697 106.882908 -0.00159697 103.980743 L -0.00159697 10.94306 C -0.00159697 8.040895 1.151495 5.255336 3.205035 3.205035 C 5.255337 1.151494 8.040896 -0.00159771 10.94306 -0.00159771 Z M 10.94306 -0.00159771 " transform="matrix(1.205997,0,0,1.205997,2.415988,4.080052)"/></g></g><g clip-rule="nonzero" clip-path="url(#3e297f0e1e)"><g clip-rule="nonzero" clip-path="url(#36c961647d)"><path style=" stroke:none;fill-rule:nonzero;fill:#1f365c;fill-opacity:1;" d="M 256.265625 4.078125 L 372.589844 4.078125 L 372.589844 142.671875 L 256.265625 142.671875 Z M 256.265625 4.078125 "/></g></g><g clip-rule="nonzero" clip-path="url(#1c73bf7e3f)"><path style=" stroke:none;fill-rule:nonzero;fill:#1f365c;fill-opacity:1;" d="M 187.5 9.09375 L 329.582031 9.09375 L 329.582031 137.167969 L 187.5 137.167969 Z M 187.5 9.09375 "/></g><g style="fill:#1f365c;fill-opacity:1;"><g transform="translate(22.79974, 110.969686)"><path style="stroke:none" d="M 69.40625 0 L 4.8125 0 L 4.8125 -64.578125 L 69.40625 -64.578125 L 69.40625 -49.359375 L 20.046875 -49.359375 L 20.046875 -15.234375 L 54.171875 -15.234375 L 54.171875 -24.671875 L 41.828125 -24.671875 L 41.828125 -39.90625 L 69.40625 -39.90625 Z M 69.40625 0 "/></g></g><g style="fill:#1f365c;fill-opacity:1;"><g transform="translate(103.240452, 110.969686)"><path style="stroke:none" d="M 20.046875 -64.578125 L 20.046875 -15.234375 L 54.171875 -15.234375 L 54.171875 -64.578125 L 69.40625 -64.578125 L 69.40625 0 L 4.8125 0 L 4.8125 -64.578125 Z M 20.046875 -64.578125 "/></g></g><g style="fill:#ffffff;fill-opacity:1;"><g transform="translate(194.085021, 110.61154)"><path style="stroke:none" d="M 94.078125 -64.578125 L 94.078125 0 L 78.84375 0 L 78.84375 -49.359375 L 57.0625 -49.25 L 57.0625 0 L 41.828125 0 L 41.828125 -49.25 L 20.046875 -49.359375 L 20.046875 0 L 4.8125 0 L 4.8125 -64.578125 Z M 94.078125 -64.578125 "/></g></g><g style="fill:#ffffff;fill-opacity:1;"><g transform="translate(292.982979, 110.61154)"><path style="stroke:none" d="M 69.40625 -64.578125 L 69.40625 0 L 54.171875 0 L 54.171875 -12.34375 L 20.046875 -12.34375 L 20.046875 0 L 4.8125 0 L 4.8125 -64.578125 Z M 20.046875 -27.5625 L 54.171875 -27.5625 L 54.171875 -49.359375 L 20.046875 -49.359375 Z M 20.046875 -27.5625 "/></g></g><g style="fill:#1f365c;fill-opacity:1;"><g transform="translate(2.409713, 207.429505)"><path style="stroke:none" d="M 20.859375 -43 L 38.625 -1.3125 C 38.789062 -0.925781 38.796875 -0.609375 38.640625 -0.359375 C 38.484375 -0.117188 38.191406 0 37.765625 0 L 34.203125 0 C 33.910156 0 33.644531 -0.0664062 33.40625 -0.203125 C 33.175781 -0.347656 33.003906 -0.570312 32.890625 -0.875 L 29.75 -8.53125 L 9.828125 -8.53125 L 6.6875 -0.875 C 6.445312 -0.289062 6 0 5.34375 0 L 1.8125 0 C 1.382812 0 1.09375 -0.117188 0.9375 -0.359375 C 0.78125 -0.609375 0.785156 -0.925781 0.953125 -1.3125 L 18.734375 -43 C 18.992188 -43.632812 19.347656 -43.953125 19.796875 -43.953125 C 20.242188 -43.953125 20.597656 -43.632812 20.859375 -43 Z M 19.796875 -32.890625 L 11.78125 -13.328125 L 27.796875 -13.328125 Z M 19.796875 -32.890625 "/></g></g><g style="fill:#1f365c;fill-opacity:1;"><g transform="translate(41.013697, 207.429505)"><path style="stroke:none" d="M 18.703125 0.890625 C 16.679688 0.890625 14.785156 0.609375 13.015625 0.046875 C 11.242188 -0.503906 9.675781 -1.363281 8.3125 -2.53125 C 6.945312 -3.695312 5.878906 -5.203125 5.109375 -7.046875 C 4.335938 -8.898438 3.953125 -11.113281 3.953125 -13.6875 L 3.953125 -41.84375 C 3.953125 -42.613281 4.332031 -43 5.09375 -43 L 8.34375 -43 C 9.101562 -43 9.484375 -42.613281 9.484375 -41.84375 L 9.484375 -14.1875 C 9.484375 -11.726562 9.863281 -9.773438 10.625 -8.328125 C 11.394531 -6.878906 12.46875 -5.847656 13.84375 -5.234375 C 15.226562 -4.617188 16.847656 -4.3125 18.703125 -4.3125 C 20.585938 -4.3125 22.21875 -4.617188 23.59375 -5.234375 C 24.976562 -5.847656 26.046875 -6.878906 26.796875 -8.328125 C 27.554688 -9.773438 27.9375 -11.726562 27.9375 -14.1875 L 27.9375 -41.84375 C 27.9375 -42.613281 28.316406 -43 29.078125 -43 L 32.328125 -43 C 33.097656 -43 33.484375 -42.613281 33.484375 -41.84375 L 33.484375 -13.6875 C 33.484375 -11.113281 33.097656 -8.898438 32.328125 -7.046875 C 31.566406 -5.203125 30.503906 -3.695312 29.140625 -2.53125 C 27.773438 -1.363281 26.203125 -0.503906 24.421875 0.046875 C 22.640625 0.609375 20.734375 0.890625 18.703125 0.890625 Z M 18.703125 0.890625 "/></g></g><g style="fill:#1f365c;fill-opacity:1;"><g transform="translate(78.441938, 207.429505)"><path style="stroke:none" d="M 15.921875 0 L 12.703125 0 C 11.941406 0 11.5625 -0.378906 11.5625 -1.140625 L 11.5625 -37.875 L 1.8125 -37.875 C 1.050781 -37.875 0.671875 -38.253906 0.671875 -39.015625 L 0.671875 -41.84375 C 0.671875 -42.613281 1.050781 -43 1.8125 -43 L 26.8125 -43 C 27.582031 -43 27.96875 -42.613281 27.96875 -41.84375 L 27.96875 -39.015625 C 27.96875 -38.253906 27.582031 -37.875 26.8125 -37.875 L 17.078125 -37.875 L 17.078125 -1.140625 C 17.078125 -0.378906 16.691406 0 15.921875 0 Z M 15.921875 0 "/></g></g><g style="fill:#1f365c;fill-opacity:1;"><g transform="translate(105.092395, 207.429505)"><path style="stroke:none" d="M 24.796875 0.890625 C 22.316406 0.890625 19.953125 0.539062 17.703125 -0.15625 C 15.453125 -0.851562 13.398438 -1.859375 11.546875 -3.171875 C 9.691406 -4.492188 8.082031 -6.078125 6.71875 -7.921875 C 5.351562 -9.765625 4.296875 -11.828125 3.546875 -14.109375 C 2.804688 -16.398438 2.4375 -18.863281 2.4375 -21.5 C 2.4375 -24.125 2.804688 -26.578125 3.546875 -28.859375 C 4.296875 -31.148438 5.351562 -33.210938 6.71875 -35.046875 C 8.082031 -36.890625 9.691406 -38.46875 11.546875 -39.78125 C 13.398438 -41.101562 15.453125 -42.117188 17.703125 -42.828125 C 19.953125 -43.535156 22.316406 -43.890625 24.796875 -43.890625 C 27.285156 -43.890625 29.648438 -43.535156 31.890625 -42.828125 C 34.140625 -42.117188 36.195312 -41.101562 38.0625 -39.78125 C 39.9375 -38.46875 41.550781 -36.890625 42.90625 -35.046875 C 44.269531 -33.210938 45.320312 -31.148438 46.0625 -28.859375 C 46.8125 -26.578125 47.1875 -24.125 47.1875 -21.5 C 47.1875 -18.863281 46.8125 -16.398438 46.0625 -14.109375 C 45.320312 -11.828125 44.269531 -9.765625 42.90625 -7.921875 C 41.550781 -6.078125 39.9375 -4.492188 38.0625 -3.171875 C 36.195312 -1.859375 34.144531 -0.851562 31.90625 -0.15625 C 29.664062 0.539062 27.296875 0.890625 24.796875 0.890625 Z M 24.796875 -4.390625 C 27.128906 -4.390625 29.3125 -4.800781 31.34375 -5.625 C 33.382812 -6.445312 35.175781 -7.617188 36.71875 -9.140625 C 38.269531 -10.660156 39.484375 -12.460938 40.359375 -14.546875 C 41.242188 -16.640625 41.6875 -18.957031 41.6875 -21.5 C 41.6875 -24.039062 41.242188 -26.351562 40.359375 -28.4375 C 39.484375 -30.53125 38.269531 -32.335938 36.71875 -33.859375 C 35.175781 -35.378906 33.382812 -36.546875 31.34375 -37.359375 C 29.3125 -38.179688 27.128906 -38.59375 24.796875 -38.59375 C 22.460938 -38.59375 20.273438 -38.179688 18.234375 -37.359375 C 16.191406 -36.546875 14.394531 -35.378906 12.84375 -33.859375 C 11.300781 -32.335938 10.09375 -30.53125 9.21875 -28.4375 C 8.351562 -26.351562 7.921875 -24.039062 7.921875 -21.5 C 7.921875 -18.976562 8.359375 -16.671875 9.234375 -14.578125 C 10.109375 -12.492188 11.320312 -10.691406 12.875 -9.171875 C 14.425781 -7.648438 16.21875 -6.472656 18.25 -5.640625 C 20.28125 -4.804688 22.460938 -4.390625 24.796875 -4.390625 Z M 24.796875 -4.390625 "/></g></g><g style="fill:#1f365c;fill-opacity:1;"><g transform="translate(154.754092, 207.429505)"><path style="stroke:none" d="M 8.59375 0 L 5.453125 0 C 4.691406 0 4.3125 -0.378906 4.3125 -1.140625 L 4.3125 -42.125 C 4.3125 -42.851562 4.453125 -43.378906 4.734375 -43.703125 C 5.023438 -44.035156 5.382812 -44.148438 5.8125 -44.046875 C 6.25 -43.941406 6.679688 -43.59375 7.109375 -43 L 24.4375 -19.171875 L 41.796875 -43 C 42.222656 -43.59375 42.648438 -43.941406 43.078125 -44.046875 C 43.503906 -44.148438 43.863281 -44.035156 44.15625 -43.703125 C 44.445312 -43.378906 44.59375 -42.851562 44.59375 -42.125 L 44.59375 -1.140625 C 44.59375 -0.378906 44.207031 0 43.4375 0 L 40.3125 0 C 39.539062 0 39.15625 -0.378906 39.15625 -1.140625 L 39.15625 -30.421875 L 25.25 -11.484375 C 25.007812 -11.140625 24.738281 -10.96875 24.4375 -10.96875 C 24.132812 -10.96875 23.863281 -11.140625 23.625 -11.484375 L 9.734375 -30.421875 L 9.734375 -1.140625 C 9.734375 -0.378906 9.351562 0 8.59375 0 Z M 8.59375 0 "/></g></g><g style="fill:#1f365c;fill-opacity:1;"><g transform="translate(203.659952, 207.429505)"><path style="stroke:none" d="M 20.859375 -43 L 38.625 -1.3125 C 38.789062 -0.925781 38.796875 -0.609375 38.640625 -0.359375 C 38.484375 -0.117188 38.191406 0 37.765625 0 L 34.203125 0 C 33.910156 0 33.644531 -0.0664062 33.40625 -0.203125 C 33.175781 -0.347656 33.003906 -0.570312 32.890625 -0.875 L 29.75 -8.53125 L 9.828125 -8.53125 L 6.6875 -0.875 C 6.445312 -0.289062 6 0 5.34375 0 L 1.8125 0 C 1.382812 0 1.09375 -0.117188 0.9375 -0.359375 C 0.78125 -0.609375 0.785156 -0.925781 0.953125 -1.3125 L 18.734375 -43 C 18.992188 -43.632812 19.347656 -43.953125 19.796875 -43.953125 C 20.242188 -43.953125 20.597656 -43.632812 20.859375 -43 Z M 19.796875 -32.890625 L 11.78125 -13.328125 L 27.796875 -13.328125 Z M 19.796875 -32.890625 "/></g></g><g style="fill:#1f365c;fill-opacity:1;"><g transform="translate(238.540688, 207.429505)"><path style="stroke:none" d="M 15.921875 0 L 12.703125 0 C 11.941406 0 11.5625 -0.378906 11.5625 -1.140625 L 11.5625 -37.875 L 1.8125 -37.875 C 1.050781 -37.875 0.671875 -38.253906 0.671875 -39.015625 L 0.671875 -41.84375 C 0.671875 -42.613281 1.050781 -43 1.8125 -43 L 26.8125 -43 C 27.582031 -43 27.96875 -42.613281 27.96875 -41.84375 L 27.96875 -39.015625 C 27.96875 -38.253906 27.582031 -37.875 26.8125 -37.875 L 17.078125 -37.875 L 17.078125 -1.140625 C 17.078125 -0.378906 16.691406 0 15.921875 0 Z M 15.921875 0 "/></g></g><g style="fill:#1f365c;fill-opacity:1;"><g transform="translate(267.206741, 207.429505)"><path style="stroke:none" d="M 8.59375 0 L 5.40625 0 C 4.632812 0 4.25 -0.378906 4.25 -1.140625 L 4.25 -41.84375 C 4.25 -42.613281 4.632812 -43 5.40625 -43 L 8.59375 -43 C 9.351562 -43 9.734375 -42.613281 9.734375 -41.84375 L 9.734375 -1.140625 C 9.734375 -0.378906 9.351562 0 8.59375 0 Z M 8.59375 0 "/></g></g><g style="fill:#1f365c;fill-opacity:1;"><g transform="translate(281.175836, 207.429505)"><path style="stroke:none" d="M 24.796875 0.890625 C 22.316406 0.890625 19.953125 0.539062 17.703125 -0.15625 C 15.453125 -0.851562 13.398438 -1.859375 11.546875 -3.171875 C 9.691406 -4.492188 8.082031 -6.078125 6.71875 -7.921875 C 5.351562 -9.765625 4.296875 -11.828125 3.546875 -14.109375 C 2.804688 -16.398438 2.4375 -18.863281 2.4375 -21.5 C 2.4375 -24.125 2.804688 -26.578125 3.546875 -28.859375 C 4.296875 -31.148438 5.351562 -33.210938 6.71875 -35.046875 C 8.082031 -36.890625 9.691406 -38.46875 11.546875 -39.78125 C 13.398438 -41.101562 15.453125 -42.117188 17.703125 -42.828125 C 19.953125 -43.535156 22.316406 -43.890625 24.796875 -43.890625 C 27.285156 -43.890625 29.648438 -43.535156 31.890625 -42.828125 C 34.140625 -42.117188 36.195312 -41.101562 38.0625 -39.78125 C 39.9375 -38.46875 41.550781 -36.890625 42.90625 -35.046875 C 44.269531 -33.210938 45.320312 -31.148438 46.0625 -28.859375 C 46.8125 -26.578125 47.1875 -24.125 47.1875 -21.5 C 47.1875 -18.863281 46.8125 -16.398438 46.0625 -14.109375 C 45.320312 -11.828125 44.269531 -9.765625 42.90625 -7.921875 C 41.550781 -6.078125 39.9375 -4.492188 38.0625 -3.171875 C 36.195312 -1.859375 34.144531 -0.851562 31.90625 -0.15625 C 29.664062 0.539062 27.296875 0.890625 24.796875 0.890625 Z M 24.796875 -4.390625 C 27.128906 -4.390625 29.3125 -4.800781 31.34375 -5.625 C 33.382812 -6.445312 35.175781 -7.617188 36.71875 -9.140625 C 38.269531 -10.660156 39.484375 -12.460938 40.359375 -14.546875 C 41.242188 -16.640625 41.6875 -18.957031 41.6875 -21.5 C 41.6875 -24.039062 41.242188 -26.351562 40.359375 -28.4375 C 39.484375 -30.53125 38.269531 -32.335938 36.71875 -33.859375 C 35.175781 -35.378906 33.382812 -36.546875 31.34375 -37.359375 C 29.3125 -38.179688 27.128906 -38.59375 24.796875 -38.59375 C 22.460938 -38.59375 20.273438 -38.179688 18.234375 -37.359375 C 16.191406 -36.546875 14.394531 -35.378906 12.84375 -33.859375 C 11.300781 -32.335938 10.09375 -30.53125 9.21875 -28.4375 C 8.351562 -26.351562 7.921875 -24.039062 7.921875 -21.5 C 7.921875 -18.976562 8.359375 -16.671875 9.234375 -14.578125 C 10.109375 -12.492188 11.320312 -10.691406 12.875 -9.171875 C 14.425781 -7.648438 16.21875 -6.472656 18.25 -5.640625 C 20.28125 -4.804688 22.460938 -4.390625 24.796875 -4.390625 Z M 24.796875 -4.390625 "/></g></g><g style="fill:#1f365c;fill-opacity:1;"><g transform="translate(330.837546, 207.429505)"><path style="stroke:none" d="M 8.59375 0 L 5.453125 0 C 4.691406 0 4.3125 -0.378906 4.3125 -1.140625 L 4.3125 -42.015625 C 4.3125 -42.722656 4.453125 -43.242188 4.734375 -43.578125 C 5.015625 -43.921875 5.375 -44.050781 5.8125 -43.96875 C 6.25 -43.894531 6.679688 -43.585938 7.109375 -43.046875 L 31.9375 -11.84375 L 31.9375 -41.84375 C 31.9375 -42.613281 32.320312 -43 33.09375 -43 L 36.21875 -43 C 36.988281 -43 37.375 -42.613281 37.375 -41.84375 L 37.375 -0.984375 C 37.375 -0.285156 37.226562 0.226562 36.9375 0.5625 C 36.644531 0.894531 36.28125 1.019531 35.84375 0.9375 C 35.40625 0.851562 34.960938 0.539062 34.515625 0 L 9.71875 -31.375 L 9.71875 -1.140625 C 9.71875 -0.378906 9.34375 0 8.59375 0 Z M 8.59375 0 "/></g></g></g></svg>